<svg xmlns="http://www.w3.org/2000/svg" width="168" height="26" viewBox="0 0 168 26" fill="none">
  <path d="M26.9986 0.571456V24.8666H22.1256V9.06431L15.6168 24.8666H11.9272L5.38357 9.06431V24.8666H0.51062V0.571456H6.0449L13.772 18.6362L21.4991 0.571456H26.9986Z" fill="#FAFFFC"/>
  <path d="M53.6402 0.571456L44.7296 24.8666H38.8125L29.902 0.571456H35.123L41.8059 19.8892L48.454 0.571456H53.6402Z" fill="#FAFFFC"/>
  <path d="M64.9502 25.1102C63.2563 25.1102 61.7248 24.8202 60.3557 24.2401C59.0098 23.66 57.9424 22.8246 57.1535 21.734C56.3645 20.6434 55.9585 19.3555 55.9352 17.8704H61.1563C61.2259 18.8682 61.5739 19.6572 62.2005 20.2373C62.8502 20.8174 63.732 21.1075 64.8458 21.1075C65.9828 21.1075 66.8762 20.8406 67.5259 20.3069C68.1756 19.75 68.5005 19.0307 68.5005 18.1489C68.5005 17.4295 68.2801 16.8378 67.8392 16.3737C67.3983 15.9096 66.8414 15.55 66.1684 15.2947C65.5187 15.0163 64.6137 14.7146 63.4535 14.3897C61.8756 13.9257 60.5878 13.4732 59.59 13.0323C58.6154 12.5682 57.7684 11.8837 57.0491 10.9787C56.3529 10.0505 56.0049 8.82066 56.0049 7.28917C56.0049 5.85048 56.3645 4.59744 57.0839 3.53003C57.8032 2.46262 58.8126 1.65047 60.1121 1.09356C61.4115 0.513445 62.8966 0.223389 64.5673 0.223389C67.0734 0.223389 69.1038 0.838308 70.6585 2.06815C72.2364 3.27478 73.1066 4.96871 73.269 7.14994H67.9088C67.8624 6.31457 67.5027 5.63004 66.8298 5.09634C66.18 4.53943 65.3099 4.26097 64.2193 4.26097C63.2679 4.26097 62.5021 4.50462 61.922 4.99192C61.3651 5.47921 61.0867 6.18695 61.0867 7.11513C61.0867 7.76486 61.2955 8.31016 61.7132 8.75105C62.1541 9.16873 62.6878 9.5168 63.3143 9.79525C63.964 10.0505 64.869 10.3522 66.0292 10.7002C67.6071 11.1643 68.895 11.6284 69.8928 12.0925C70.8906 12.5566 71.7491 13.2527 72.4685 14.1809C73.1878 15.1091 73.5475 16.3273 73.5475 17.8356C73.5475 19.1351 73.211 20.3417 72.5381 21.4555C71.8652 22.5693 70.879 23.4627 69.5795 24.1356C68.2801 24.7854 66.737 25.1102 64.9502 25.1102Z" fill="#FAFFFC"/>
  <path d="M94.3054 0.571456V4.50462H87.8313V24.8666H82.9584V4.50462H76.4843V0.571456H94.3054Z" fill="#FAFFFC"/>
  <path d="M101.008 17.7602C101.008 16.366 101.319 15.1207 101.942 14.0243C102.578 12.9143 103.438 12.0548 104.52 11.4457C105.617 10.823 106.842 10.5117 108.195 10.5117C109.779 10.5117 111.167 10.9178 112.358 11.7299C113.549 12.5421 114.381 13.6656 114.855 15.1004H111.586C111.261 14.4236 110.801 13.916 110.206 13.5776C109.623 13.2392 108.947 13.07 108.175 13.07C107.349 13.07 106.612 13.2663 105.962 13.6588C105.326 14.0378 104.825 14.5792 104.46 15.2831C104.108 15.987 103.932 16.8127 103.932 17.7602C103.932 18.6942 104.108 19.5199 104.46 20.2373C104.825 20.9412 105.326 21.4894 105.962 21.8819C106.612 22.2609 107.349 22.4504 108.175 22.4504C108.947 22.4504 109.623 22.2812 110.206 21.9428C110.801 21.5909 111.261 21.0765 111.586 20.3997H114.855C114.381 21.8481 113.549 22.9783 112.358 23.7905C111.18 24.5891 109.793 24.9884 108.195 24.9884C106.842 24.9884 105.617 24.6839 104.52 24.0747C103.438 23.4521 102.578 22.5925 101.942 21.4961C101.319 20.3997 101.008 19.1544 101.008 17.7602Z" fill="#FAFFFC"/>
  <path d="M122.278 25.0493C121.195 25.0493 120.22 24.8124 119.354 24.3387C118.488 23.8514 117.804 23.1678 117.303 22.288C116.816 21.4081 116.572 20.3929 116.572 19.2424C116.572 18.0918 116.823 17.0766 117.324 16.1968C117.838 15.317 118.535 14.6402 119.415 14.1664C120.295 13.6791 121.276 13.4355 122.359 13.4355C123.442 13.4355 124.423 13.6791 125.303 14.1664C126.183 14.6402 126.873 15.317 127.374 16.1968C127.888 17.0766 128.146 18.0918 128.146 19.2424C128.146 20.3929 127.882 21.4081 127.354 22.288C126.839 23.1678 126.136 23.8514 125.242 24.3387C124.362 24.8124 123.374 25.0493 122.278 25.0493ZM122.278 22.5722C122.792 22.5722 123.273 22.4504 123.719 22.2068C124.18 21.9496 124.545 21.5706 124.816 21.0697C125.087 20.5689 125.222 19.9598 125.222 19.2424C125.222 18.173 124.938 17.3541 124.369 16.7856C123.814 16.2036 123.131 15.9125 122.318 15.9125C121.506 15.9125 120.823 16.2036 120.268 16.7856C119.726 17.3541 119.456 18.173 119.456 19.2424C119.456 20.3117 119.72 21.1374 120.247 21.7195C120.789 22.288 121.466 22.5722 122.278 22.5722Z" fill="#FAFFFC"/>
  <path d="M135.388 15.9532H133.419V24.8666H130.535V15.9532H129.256V13.6182H130.535V13.0497C130.535 11.669 130.928 10.6538 131.713 10.0041C132.498 9.35437 133.682 9.04981 135.266 9.09041V11.4863C134.576 11.4727 134.095 11.5878 133.825 11.8314C133.554 12.0751 133.419 12.515 133.419 13.1512V13.6182H135.388V15.9532Z" fill="#FAFFFC"/>
  <path d="M142.387 15.9532H140.418V24.8666H137.535V15.9532H136.256V13.6182H137.535V13.0497C137.535 11.669 137.927 10.6538 138.712 10.0041C139.497 9.35437 140.682 9.04981 142.266 9.09041V11.4863C141.575 11.4727 141.095 11.5878 140.824 11.8314C140.553 12.0751 140.418 12.515 140.418 13.1512V13.6182H142.387V15.9532Z" fill="#FAFFFC"/>
  <path d="M154.686 18.9987C154.686 19.4048 154.659 19.7703 154.605 20.0952H146.382C146.449 20.9073 146.734 21.5435 147.234 22.0037C147.735 22.464 148.351 22.6941 149.082 22.6941C150.138 22.6941 150.889 22.2406 151.336 21.3337H154.402C154.077 22.4166 153.454 23.3099 152.534 24.0138C151.613 24.7042 150.483 25.0493 149.143 25.0493C148.06 25.0493 147.086 24.8124 146.219 24.3387C145.366 23.8514 144.696 23.1678 144.209 22.288C143.735 21.4081 143.498 20.3929 143.498 19.2424C143.498 18.0783 143.735 17.0563 144.209 16.1765C144.683 15.2967 145.346 14.6199 146.199 14.1461C147.052 13.6723 148.033 13.4355 149.143 13.4355C150.212 13.4355 151.167 13.6656 152.006 14.1258C152.859 14.586 153.515 15.2425 153.975 16.0953C154.449 16.9345 154.686 17.9023 154.686 18.9987ZM151.742 18.1866C151.728 17.4556 151.464 16.8736 150.95 16.4404C150.436 15.9938 149.806 15.7704 149.062 15.7704C148.358 15.7704 147.762 15.987 147.275 16.4201C146.801 16.8398 146.51 17.4286 146.402 18.1866H151.742Z" fill="#FAFFFC"/>
  <path d="M167.217 18.9987C167.217 19.4048 167.19 19.7703 167.136 20.0952H158.913C158.981 20.9073 159.265 21.5435 159.766 22.0037C160.267 22.464 160.882 22.6941 161.613 22.6941C162.669 22.6941 163.42 22.2406 163.867 21.3337H166.933C166.608 22.4166 165.986 23.3099 165.065 24.0138C164.145 24.7042 163.014 25.0493 161.674 25.0493C160.591 25.0493 159.617 24.8124 158.751 24.3387C157.898 23.8514 157.228 23.1678 156.74 22.288C156.267 21.4081 156.03 20.3929 156.03 19.2424C156.03 18.0783 156.267 17.0563 156.74 16.1765C157.214 15.2967 157.877 14.6199 158.73 14.1461C159.583 13.6723 160.564 13.4355 161.674 13.4355C162.744 13.4355 163.698 13.6656 164.537 14.1258C165.39 14.586 166.046 15.2425 166.507 16.0953C166.98 16.9345 167.217 17.9023 167.217 18.9987ZM164.273 18.1866C164.26 17.4556 163.996 16.8736 163.481 16.4404C162.967 15.9938 162.338 15.7704 161.593 15.7704C160.889 15.7704 160.294 15.987 159.806 16.4201C159.333 16.8398 159.042 17.4286 158.933 18.1866H164.273Z" fill="#FAFFFC"/>
</svg>
